<svg width="207" height="78" viewBox="0 0 207 78" fill="none" xmlns="http://www.w3.org/2000/svg">
<circle cx="39" cy="39" r="37.5" stroke="white" stroke-width="3"/>
<rect x="36.3409" y="18.6136" width="4.43182" height="41.6591" rx="2.21591" fill="white"/>
<path d="M25.2614 25.2614L20.3864 29.25L20.8295 50.0795L33.6818 57.6136V20.8295L29.6932 23.9318V49.1932L25.2614 46.9773V25.2614Z" fill="white"/>
<path d="M43.875 26.1477V20.8295C47.4205 20.8295 49.1932 22.6023 49.1932 26.1477H43.875Z" fill="white"/>
<path d="M49.1932 27.0341H43.875V37.6705H49.1932V27.0341Z" fill="white"/>
<path d="M43.875 56.7273V43.875L53.1818 35.0114V26.1477C54.2455 26.1477 56.2841 28.2159 57.1705 29.25V37.2273C55.3977 37.5818 54.6591 39.7386 54.5114 40.7727L57.1705 42.9886V49.1932L52.7386 52.2954V45.2045C50.9659 42.7227 49.6364 44.1705 49.1932 45.2045V53.625L43.875 56.7273Z" fill="white"/>
<path d="M96.96 45.8C95.28 45.8 93.7733 45.52 92.44 44.96C91.1067 44.3733 90.0533 43.5733 89.28 42.56C88.5067 41.52 88.08 40.3333 88 39H91.76C91.8667 40.0933 92.3733 40.9867 93.28 41.68C94.2133 42.3733 95.4267 42.72 96.92 42.72C98.3067 42.72 99.4 42.4133 100.2 41.8C101 41.1867 101.4 40.4133 101.4 39.48C101.4 38.52 100.973 37.8133 100.12 37.36C99.2667 36.88 97.9467 36.4133 96.16 35.96C94.5333 35.5333 93.2 35.1067 92.16 34.68C91.1467 34.2267 90.2667 33.5733 89.52 32.72C88.8 31.84 88.44 30.6933 88.44 29.28C88.44 28.16 88.7733 27.1333 89.44 26.2C90.1067 25.2667 91.0533 24.5333 92.28 24C93.5067 23.44 94.9067 23.16 96.48 23.16C98.9067 23.16 100.867 23.7733 102.36 25C103.853 26.2267 104.653 27.9067 104.76 30.04H101.12C101.04 28.8933 100.573 27.9733 99.72 27.28C98.8933 26.5867 97.7733 26.24 96.36 26.24C95.0533 26.24 94.0133 26.52 93.24 27.08C92.4667 27.64 92.08 28.3733 92.08 29.28C92.08 30 92.3067 30.6 92.76 31.08C93.24 31.5333 93.8267 31.9067 94.52 32.2C95.24 32.4667 96.2267 32.7733 97.48 33.12C99.0533 33.5467 100.333 33.9733 101.32 34.4C102.307 34.8 103.147 35.4133 103.84 36.24C104.56 37.0667 104.933 38.1467 104.96 39.48C104.96 40.68 104.627 41.76 103.96 42.72C103.293 43.68 102.347 44.44 101.12 45C99.92 45.5333 98.5333 45.8 96.96 45.8Z" fill="white"/>
<path d="M123.658 45.8C121.605 45.8 119.738 45.3333 118.058 44.4C116.405 43.4667 115.098 42.1467 114.138 40.44C113.205 38.7067 112.738 36.7067 112.738 34.44C112.738 32.2 113.218 30.2267 114.178 28.52C115.165 26.7867 116.498 25.4667 118.178 24.56C119.858 23.6267 121.738 23.16 123.818 23.16C125.898 23.16 127.778 23.6267 129.458 24.56C131.138 25.4667 132.458 26.7733 133.418 28.48C134.405 30.1867 134.898 32.1733 134.898 34.44C134.898 36.7067 134.392 38.7067 133.378 40.44C132.392 42.1467 131.045 43.4667 129.338 44.4C127.632 45.3333 125.738 45.8 123.658 45.8ZM123.658 42.6C124.965 42.6 126.192 42.2933 127.338 41.68C128.485 41.0667 129.405 40.1467 130.098 38.92C130.818 37.6933 131.178 36.2 131.178 34.44C131.178 32.68 130.832 31.1867 130.138 29.96C129.445 28.7333 128.538 27.8267 127.418 27.24C126.298 26.6267 125.085 26.32 123.778 26.32C122.445 26.32 121.218 26.6267 120.098 27.24C119.005 27.8267 118.125 28.7333 117.458 29.96C116.792 31.1867 116.458 32.68 116.458 34.44C116.458 36.2267 116.778 37.7333 117.418 38.96C118.085 40.1867 118.965 41.1067 120.058 41.72C121.152 42.3067 122.352 42.6 123.658 42.6Z" fill="white"/>
<path d="M154.364 23.12C157.031 23.12 159.191 23.9333 160.844 25.56C162.498 27.16 163.324 29.48 163.324 32.52V45.44H159.724V33.04C159.724 30.8533 159.178 29.1867 158.084 28.04C156.991 26.8667 155.498 26.28 153.604 26.28C151.684 26.28 150.151 26.88 149.004 28.08C147.884 29.28 147.324 31.0267 147.324 33.32V45.44H143.684V23.52H147.324V26.64C148.044 25.52 149.018 24.6533 150.244 24.04C151.498 23.4267 152.871 23.12 154.364 23.12Z" fill="white"/>
<path d="M175.15 19.96C174.457 19.96 173.87 19.72 173.39 19.24C172.91 18.76 172.67 18.1733 172.67 17.48C172.67 16.7867 172.91 16.2 173.39 15.72C173.87 15.24 174.457 15 175.15 15C175.817 15 176.377 15.24 176.83 15.72C177.31 16.2 177.55 16.7867 177.55 17.48C177.55 18.1733 177.31 18.76 176.83 19.24C176.377 19.72 175.817 19.96 175.15 19.96ZM176.91 23.52V45.44H173.27V23.52H176.91Z" fill="white"/>
<path d="M185.754 34.44C185.754 32.1733 186.207 30.2 187.114 28.52C188.021 26.8133 189.274 25.4933 190.874 24.56C192.501 23.6267 194.354 23.16 196.434 23.16C199.127 23.16 201.341 23.8133 203.074 25.12C204.834 26.4267 205.994 28.24 206.554 30.56H202.634C202.261 29.2267 201.527 28.1733 200.434 27.4C199.367 26.6267 198.034 26.24 196.434 26.24C194.354 26.24 192.674 26.96 191.394 28.4C190.114 29.8133 189.474 31.8267 189.474 34.44C189.474 37.08 190.114 39.12 191.394 40.56C192.674 42 194.354 42.72 196.434 42.72C198.034 42.72 199.367 42.3467 200.434 41.6C201.501 40.8533 202.234 39.7867 202.634 38.4H206.554C205.967 40.64 204.794 42.44 203.034 43.8C201.274 45.1333 199.074 45.8 196.434 45.8C194.354 45.8 192.501 45.3333 190.874 44.4C189.274 43.4667 188.021 42.1467 187.114 40.44C186.207 38.7333 185.754 36.7333 185.754 34.44Z" fill="white"/>
<path d="M97.2104 59.2268C97.0786 60.3547 96.6611 61.2263 95.958 61.8415C95.2598 62.4519 94.3296 62.757 93.1675 62.757C91.9077 62.757 90.897 62.3054 90.1353 61.4021C89.3784 60.4987 89 59.2902 89 57.7766V56.7512C89 55.76 89.1758 54.8884 89.5273 54.1364C89.8838 53.3845 90.3867 52.8083 91.0361 52.4079C91.6855 52.0026 92.4375 51.8 93.292 51.8C94.4248 51.8 95.333 52.1174 96.0166 52.7522C96.7002 53.382 97.0981 54.2561 97.2104 55.3742H95.7969C95.6748 54.5246 95.4087 53.9094 94.9985 53.5285C94.5933 53.1477 94.0244 52.9572 93.292 52.9572C92.3936 52.9572 91.688 53.2893 91.1753 53.9533C90.6675 54.6174 90.4136 55.5622 90.4136 56.7878V57.8205C90.4136 58.9777 90.6553 59.8981 91.1387 60.5817C91.6221 61.2653 92.2983 61.6071 93.1675 61.6071C93.9487 61.6071 94.5469 61.4314 94.9619 61.0798C95.3818 60.7233 95.6602 60.1057 95.7969 59.2268H97.2104Z" fill="white" fill-opacity="0.8"/>
<path d="M115.344 51.9465V59.1975C115.339 60.2033 115.022 61.0261 114.392 61.6657C113.767 62.3054 112.917 62.6643 111.843 62.7424L111.47 62.757C110.303 62.757 109.372 62.4421 108.679 61.8122C107.986 61.1823 107.634 60.3156 107.624 59.2121V51.9465H109.016V59.1682C109.016 59.9397 109.228 60.5402 109.653 60.9699C110.078 61.3947 110.683 61.6071 111.47 61.6071C112.265 61.6071 112.873 61.3947 113.293 60.9699C113.718 60.5451 113.93 59.947 113.93 59.1755V51.9465H115.344Z" fill="white" fill-opacity="0.8"/>
<path d="M127.67 58.4357V62.6105H126.263V51.9465H130.196C131.363 51.9465 132.276 52.2443 132.936 52.84C133.6 53.4357 133.932 54.2243 133.932 55.2058C133.932 56.2409 133.607 57.0393 132.958 57.6008C132.313 58.1574 131.388 58.4357 130.182 58.4357H127.67ZM127.67 57.2858H130.196C130.948 57.2858 131.525 57.1101 131.925 56.7585C132.325 56.4021 132.525 55.8894 132.525 55.2204C132.525 54.5856 132.325 54.0778 131.925 53.697C131.525 53.3161 130.975 53.1184 130.277 53.1037H127.67V57.2858Z" fill="white" fill-opacity="0.8"/>
<path d="M152.27 59.2268C152.139 60.3547 151.721 61.2263 151.018 61.8415C150.32 62.4519 149.39 62.757 148.227 62.757C146.968 62.757 145.957 62.3054 145.195 61.4021C144.438 60.4987 144.06 59.2902 144.06 57.7766V56.7512C144.06 55.76 144.236 54.8884 144.587 54.1364C144.944 53.3845 145.447 52.8083 146.096 52.4079C146.746 52.0026 147.497 51.8 148.352 51.8C149.485 51.8 150.393 52.1174 151.077 52.7522C151.76 53.382 152.158 54.2561 152.27 55.3742H150.857C150.735 54.5246 150.469 53.9094 150.058 53.5285C149.653 53.1477 149.084 52.9572 148.352 52.9572C147.454 52.9572 146.748 53.2893 146.235 53.9533C145.727 54.6174 145.474 55.5622 145.474 56.7878V57.8205C145.474 58.9777 145.715 59.8981 146.199 60.5817C146.682 61.2653 147.358 61.6071 148.227 61.6071C149.009 61.6071 149.607 61.4314 150.022 61.0798C150.442 60.7233 150.72 60.1057 150.857 59.2268H152.27Z" fill="white" fill-opacity="0.8"/>
<path d="M168.785 59.8273H164.318L163.314 62.6105H161.864L165.936 51.9465H167.167L171.246 62.6105H169.803L168.785 59.8273ZM164.742 58.6701H168.368L166.551 53.6823L164.742 58.6701Z" fill="white" fill-opacity="0.8"/>
<path d="M184.092 57.6521L182.788 59.007V62.6105H181.382V51.9465H182.788V57.2199L187.527 51.9465H189.226L185.029 56.656L189.556 62.6105H187.871L184.092 57.6521Z" fill="white" fill-opacity="0.8"/>
<path d="M205.514 57.6814H200.892V61.4606H206.261V62.6105H199.486V51.9465H206.188V53.1037H200.892V56.5314H205.514V57.6814Z" fill="white" fill-opacity="0.8"/>
</svg>
