<svg width="1440" height="728" viewBox="0 0 1440 728" fill="none" xmlns="http://www.w3.org/2000/svg">
<path fill-rule="evenodd" clip-rule="evenodd" d="M0 609.91C37.527 623.583 76.6692 641.009 117.281 659.089C141.714 669.966 166.678 681.08 192.142 691.757C353.142 759.257 594.732 732.958 864.642 607.257C1048.37 521.694 1200.07 536.27 1321.84 547.969C1364.95 552.111 1404.3 555.892 1440 554.741V42.5133C1415.62 31.9369 1388.71 23.2204 1359.14 16.7567C1222.83 -13.0421 1148.24 49.971 1075.35 111.555C975.78 195.67 879.37 277.118 633.142 115.757C323.26 -87.3199 96.8802 18.6753 0 117.38V609.91Z" fill="url(#paint0_linear)"/>
<defs>
<linearGradient id="paint0_linear" x1="255" y1="-3.49173e-06" x2="446.365" y2="876.35" gradientUnits="userSpaceOnUse">
<stop stop-color="#2C73C9"/>
<stop offset="1" stop-color="#1F334C"/>
</linearGradient>
</defs>
</svg>
