<svg width="88" height="604" viewBox="0 0 88 604" fill="none" xmlns="http://www.w3.org/2000/svg">
<path d="M85.92 82.8H1.92V54.48H32.88V28.32H1.92V0L85.92 0V28.32H56.16V54.48H85.92V82.8Z" fill="white"/>
<path d="M23.28 166.285H1.92V96.4453H85.92V164.725H64.56V124.285H54.72V159.805H34.32V124.285H23.28V166.285Z" fill="white"/>
<path d="M16.56 234.428V202.508L1.92 196.868V168.068L85.92 204.788V232.628L1.92 269.348V240.068L16.56 234.428ZM36.96 226.628L58.08 218.467L36.96 210.307V226.628Z" fill="white"/>
<path d="M85.92 273.867V315.267C85.92 324.627 84.2 332.867 80.76 339.987C77.4 347.187 72.56 352.747 66.24 356.667C59.92 360.667 52.48 362.667 43.92 362.667C35.36 362.667 27.92 360.667 21.6 356.667C15.28 352.747 10.4 347.187 6.96 339.987C3.6 332.867 1.92 324.627 1.92 315.267V273.867H85.92ZM24 314.067C24 320.147 25.72 324.987 29.16 328.587C32.68 332.267 37.6 334.107 43.92 334.107C50.24 334.107 55.12 332.267 58.56 328.587C62.08 324.987 63.84 320.147 63.84 314.067V302.187H24V314.067Z" fill="white"/>
<path d="M0 404.328C0 397.368 0.76 390.568 2.28 383.928C3.88 377.368 6 371.968 8.64 367.728L29.28 376.848C26.96 380.848 25.08 385.328 23.64 390.288C22.28 395.248 21.6 400.008 21.6 404.568C21.6 408.488 21.96 411.288 22.68 412.968C23.48 414.648 24.64 415.488 26.16 415.488C27.92 415.488 29.24 414.368 30.12 412.128C31 409.968 31.96 406.368 33 401.328C34.36 394.848 35.8 389.448 37.32 385.128C38.92 380.808 41.48 377.048 45 373.848C48.6 370.648 53.44 369.048 59.52 369.048C64.8 369.048 69.6 370.528 73.92 373.488C78.24 376.448 81.64 380.848 84.12 386.688C86.6 392.608 87.84 399.768 87.84 408.168C87.84 413.928 87.2 419.568 85.92 425.088C84.72 430.688 82.92 435.608 80.52 439.848L60 431.328C64.16 423.088 66.24 415.288 66.24 407.928C66.24 400.648 64.48 397.008 60.96 397.008C59.28 397.008 58 398.088 57.12 400.248C56.32 402.408 55.44 405.968 54.48 410.928C53.28 417.328 51.88 422.728 50.28 427.128C48.76 431.528 46.24 435.328 42.72 438.528C39.2 441.808 34.4 443.448 28.32 443.448C23.04 443.448 18.24 441.968 13.92 439.008C9.68 436.048 6.28 431.608 3.72 425.688C1.24 419.848 0 412.728 0 404.328Z" fill="white"/>
<path d="M23.28 521.715H1.92V451.875H85.92V520.155H64.56V479.715H54.72V515.235H34.32V479.715H23.28V521.715Z" fill="white"/>
<path d="M63.96 550.857V526.257H85.92V603.777H63.96V579.177H1.92V550.857H63.96Z" fill="white"/>
</svg>
